<svg width="178" height="36" viewBox="0 0 178 36" fill="none" xmlns="http://www.w3.org/2000/svg">
<path d="M100.707 9.88633C99.5394 9.88633 98.6473 9.56862 98.0303 8.93321C97.2028 8.15373 96.7891 7.03068 96.7891 5.56407C96.7891 4.06791 97.2028 2.94486 98.0303 2.19493C98.6473 1.55953 99.5394 1.24182 100.707 1.24182C101.874 1.24182 102.766 1.55953 103.383 2.19493C104.207 2.94486 104.619 4.06791 104.619 5.56407C104.619 7.03068 104.207 8.15373 103.383 8.93321C102.766 9.56862 101.874 9.88633 100.707 9.88633ZM102.319 7.69195C102.715 7.19323 102.912 6.48394 102.912 5.56407C102.912 4.6479 102.713 3.94046 102.314 3.44174C101.919 2.93932 101.383 2.68811 100.707 2.68811C100.031 2.68811 99.4914 2.93747 99.0887 3.4362C98.6861 3.93492 98.4847 4.64421 98.4847 5.56407C98.4847 6.48394 98.6861 7.19323 99.0887 7.69195C99.4914 8.19067 100.031 8.44003 100.707 8.44003C101.383 8.44003 101.92 8.19067 102.319 7.69195Z" fill="white"/>
<path d="M110.859 4.2674C111.346 4.78828 111.59 5.55299 111.59 6.56152C111.59 7.62545 111.35 8.43634 110.87 8.99417C110.393 9.552 109.778 9.83091 109.024 9.83091C108.544 9.83091 108.145 9.71085 107.827 9.47072C107.654 9.33773 107.484 9.14378 107.318 8.88888V12.0364H105.755V3.61906H107.268V4.51122C107.438 4.24893 107.619 4.04205 107.811 3.89059C108.162 3.62091 108.579 3.48607 109.063 3.48607C109.769 3.48607 110.367 3.74651 110.859 4.2674ZM109.961 6.63909C109.961 6.17362 109.854 5.76171 109.639 5.40337C109.429 5.04503 109.085 4.86586 108.609 4.86586C108.036 4.86586 107.643 5.13739 107.428 5.68044C107.318 5.96859 107.262 6.33432 107.262 6.77763C107.262 7.47953 107.449 7.97271 107.822 8.25717C108.044 8.42341 108.306 8.50653 108.609 8.50653C109.048 8.50653 109.383 8.33659 109.612 7.99673C109.844 7.65686 109.961 7.20431 109.961 6.63909Z" fill="white"/>
<path d="M117.907 7.8859C117.867 8.24424 117.68 8.60812 117.347 8.97754C116.83 9.56493 116.106 9.85862 115.175 9.85862C114.407 9.85862 113.729 9.6111 113.142 9.11608C112.554 8.62105 112.261 7.81571 112.261 6.70005C112.261 5.65458 112.525 4.85293 113.053 4.2951C113.585 3.73728 114.274 3.45836 115.12 3.45836C115.622 3.45836 116.075 3.55256 116.477 3.74097C116.88 3.92938 117.213 4.22676 117.475 4.63313C117.711 4.99147 117.865 5.40707 117.935 5.87993C117.975 6.157 117.992 6.55597 117.985 7.07686H113.851C113.873 7.68272 114.063 8.10755 114.422 8.35137C114.64 8.50283 114.902 8.57857 115.209 8.57857C115.534 8.57857 115.798 8.48621 116.001 8.3015C116.112 8.20176 116.21 8.06322 116.295 7.8859H117.907ZM116.344 6.03509C116.319 5.61764 116.191 5.30178 115.962 5.08752C115.737 4.86956 115.456 4.76058 115.12 4.76058C114.754 4.76058 114.47 4.8751 114.266 5.10414C114.067 5.33318 113.941 5.6435 113.89 6.03509H116.344Z" fill="white"/>
<path d="M121.897 4.78828C121.361 4.78828 120.994 5.01548 120.794 5.46987C120.691 5.71 120.639 6.01662 120.639 6.38973V9.65913H119.065V3.63014H120.589V4.51122C120.792 4.2009 120.984 3.9774 121.165 3.84071C121.491 3.59689 121.902 3.47498 122.401 3.47498C123.026 3.47498 123.535 3.63938 123.931 3.96816C124.33 4.29326 124.529 4.83446 124.529 5.59178V9.65913H122.911V5.98522C122.911 5.66751 122.868 5.42369 122.784 5.25376C122.628 4.94344 122.333 4.78828 121.897 4.78828Z" fill="white"/>
<path d="M131.882 9.04958C131.273 9.60741 130.493 9.88633 129.544 9.88633C128.369 9.88633 127.446 9.50951 126.773 8.75589C126.101 7.99857 125.765 6.96049 125.765 5.64165C125.765 4.21568 126.147 3.11664 126.912 2.34455C127.577 1.6722 128.423 1.33602 129.45 1.33602C130.824 1.33602 131.829 1.78672 132.464 2.68811C132.815 3.19422 133.004 3.70218 133.029 4.21198H131.323C131.212 3.8204 131.07 3.52486 130.896 3.32537C130.586 2.97072 130.126 2.7934 129.516 2.7934C128.896 2.7934 128.406 3.04461 128.048 3.54702C127.689 4.04574 127.51 4.75319 127.51 5.66936C127.51 6.58553 127.699 7.27266 128.076 7.73074C128.456 8.18513 128.938 8.41233 129.522 8.41233C130.12 8.41233 130.577 8.21653 130.891 7.82494C131.064 7.61437 131.208 7.29852 131.323 6.87737H133.013C132.865 7.76768 132.488 8.49175 131.882 9.04958Z" fill="white"/>
<path d="M139.23 4.38377C139.74 5.02287 139.995 5.77834 139.995 6.65018C139.995 7.53679 139.74 8.29596 139.23 8.92767C138.72 9.55569 137.947 9.8697 136.908 9.8697C135.87 9.8697 135.096 9.55569 134.587 8.92767C134.077 8.29596 133.822 7.53679 133.822 6.65018C133.822 5.77834 134.077 5.02287 134.587 4.38377C135.096 3.74466 135.87 3.42511 136.908 3.42511C137.947 3.42511 138.72 3.74466 139.23 4.38377ZM136.903 4.76058C136.441 4.76058 136.085 4.92497 135.833 5.25376C135.586 5.57885 135.462 6.04432 135.462 6.65018C135.462 7.25603 135.586 7.72335 135.833 8.05214C136.085 8.38093 136.441 8.54532 136.903 8.54532C137.365 8.54532 137.719 8.38093 137.967 8.05214C138.214 7.72335 138.338 7.25603 138.338 6.65018C138.338 6.04432 138.214 5.57885 137.967 5.25376C137.719 4.92497 137.365 4.76058 136.903 4.76058Z" fill="white"/>
<path d="M144.522 5.28146C144.389 4.98962 144.129 4.8437 143.741 4.8437C143.29 4.8437 142.987 4.98962 142.832 5.28146C142.747 5.4477 142.705 5.69522 142.705 6.024V9.65913H141.103V3.63014H142.638V4.51122C142.834 4.19721 143.019 3.97371 143.192 3.84071C143.499 3.60428 143.896 3.48607 144.384 3.48607C144.845 3.48607 145.219 3.58766 145.503 3.79084C145.732 3.97925 145.906 4.22122 146.024 4.51676C146.231 4.16211 146.488 3.90167 146.794 3.73543C147.119 3.56919 147.481 3.48607 147.88 3.48607C148.146 3.48607 148.409 3.53779 148.667 3.64123C148.926 3.74466 149.16 3.92568 149.371 4.18428C149.541 4.39485 149.655 4.65345 149.714 4.96007C149.751 5.16325 149.77 5.46063 149.77 5.85222L149.759 9.65913H148.141V5.81343C148.141 5.58439 148.104 5.39599 148.03 5.24822C147.89 4.96745 147.631 4.82707 147.254 4.82707C146.818 4.82707 146.517 5.00809 146.351 5.37013C146.266 5.56223 146.223 5.79312 146.223 6.06279V9.65913H144.633V6.06279C144.633 5.70445 144.596 5.44401 144.522 5.28146Z" fill="white"/>
<path d="M156.287 4.2674C156.774 4.78828 157.018 5.55299 157.018 6.56152C157.018 7.62545 156.778 8.43634 156.298 8.99417C155.821 9.552 155.206 9.83091 154.452 9.83091C153.972 9.83091 153.573 9.71085 153.255 9.47072C153.082 9.33773 152.912 9.14378 152.746 8.88888V12.0364H151.183V3.61906H152.696V4.51122C152.866 4.24893 153.047 4.04205 153.239 3.89059C153.59 3.62091 154.007 3.48607 154.491 3.48607C155.197 3.48607 155.795 3.74651 156.287 4.2674ZM155.389 6.63909C155.389 6.17362 155.282 5.76171 155.067 5.40337C154.857 5.04503 154.513 4.86586 154.037 4.86586C153.464 4.86586 153.071 5.13739 152.856 5.68044C152.746 5.96859 152.69 6.33432 152.69 6.77763C152.69 7.47953 152.877 7.97271 153.25 8.25717C153.472 8.42341 153.734 8.50653 154.037 8.50653C154.476 8.50653 154.811 8.33659 155.04 7.99673C155.272 7.65686 155.389 7.20431 155.389 6.63909Z" fill="white"/>
<path d="M158.392 4.27294C158.81 3.74097 159.526 3.47498 160.542 3.47498C161.204 3.47498 161.791 3.60613 162.304 3.86842C162.818 4.13071 163.075 4.62574 163.075 5.3535V8.12418C163.075 8.31628 163.078 8.54901 163.086 8.82239C163.097 9.02926 163.128 9.16964 163.18 9.24353C163.232 9.31741 163.309 9.37837 163.413 9.42639V9.65913H161.695C161.647 9.53722 161.614 9.4227 161.595 9.31557C161.577 9.20843 161.562 9.08652 161.551 8.94984C161.333 9.18627 161.082 9.3876 160.797 9.55384C160.457 9.74964 160.073 9.84754 159.645 9.84754C159.098 9.84754 158.645 9.69238 158.287 9.38206C157.932 9.06805 157.755 8.62474 157.755 8.05214C157.755 7.3096 158.041 6.77209 158.614 6.43961C158.928 6.25859 159.39 6.12929 159.999 6.05171L160.537 5.98522C160.829 5.94827 161.037 5.9021 161.163 5.84668C161.388 5.75063 161.501 5.60102 161.501 5.39783C161.501 5.15032 161.414 4.98038 161.24 4.88803C161.071 4.79198 160.819 4.74395 160.487 4.74395C160.114 4.74395 159.85 4.83631 159.694 5.02102C159.584 5.15771 159.51 5.34242 159.473 5.57516H157.949C157.982 5.04688 158.13 4.61281 158.392 4.27294ZM159.567 8.51761C159.715 8.63952 159.896 8.70048 160.11 8.70048C160.45 8.70048 160.762 8.60073 161.047 8.40124C161.335 8.20176 161.484 7.83787 161.495 7.3096V6.72222C161.396 6.78502 161.294 6.83674 161.191 6.87737C161.091 6.91432 160.952 6.94941 160.775 6.98266L160.42 7.04915C160.088 7.10826 159.85 7.1803 159.706 7.26527C159.462 7.40934 159.34 7.63284 159.34 7.93577C159.34 8.20545 159.416 8.3994 159.567 8.51761Z" fill="white"/>
<path d="M168.644 3.89613C169.117 4.19905 169.388 4.71994 169.458 5.45879H167.879C167.857 5.25561 167.8 5.09491 167.707 4.97669C167.534 4.76242 167.238 4.65529 166.821 4.65529C166.477 4.65529 166.231 4.70886 166.084 4.81599C165.94 4.92312 165.868 5.04873 165.868 5.1928C165.868 5.37382 165.945 5.50497 166.1 5.58624C166.255 5.67121 166.804 5.81713 167.746 6.024C168.374 6.17177 168.845 6.39528 169.159 6.69451C169.469 6.99744 169.625 7.37609 169.625 7.83048C169.625 8.42895 169.401 8.91844 168.954 9.29894C168.511 9.67575 167.824 9.86416 166.893 9.86416C165.943 9.86416 165.241 9.66467 164.787 9.26569C164.336 8.86302 164.111 8.35137 164.111 7.73074H165.712C165.746 8.0115 165.818 8.21099 165.928 8.32921C166.124 8.53978 166.486 8.64506 167.015 8.64506C167.325 8.64506 167.571 8.59889 167.752 8.50653C167.936 8.41417 168.029 8.27564 168.029 8.09093C168.029 7.9136 167.955 7.77877 167.807 7.68641C167.659 7.59405 167.111 7.4352 166.161 7.20985C165.478 7.03992 164.996 6.8275 164.715 6.5726C164.434 6.32139 164.294 5.95936 164.294 5.48649C164.294 4.92867 164.512 4.45026 164.948 4.05129C165.387 3.64861 166.004 3.44728 166.798 3.44728C167.552 3.44728 168.167 3.59689 168.644 3.89613Z" fill="white"/>
<path d="M174.961 3.89613C175.434 4.19905 175.705 4.71994 175.775 5.45879H174.196C174.174 5.25561 174.117 5.09491 174.024 4.97669C173.851 4.76242 173.555 4.65529 173.138 4.65529C172.794 4.65529 172.549 4.70886 172.401 4.81599C172.257 4.92312 172.185 5.04873 172.185 5.1928C172.185 5.37382 172.262 5.50497 172.417 5.58624C172.573 5.67121 173.121 5.81713 174.063 6.024C174.691 6.17177 175.162 6.39528 175.476 6.69451C175.787 6.99744 175.942 7.37609 175.942 7.83048C175.942 8.42895 175.718 8.91844 175.271 9.29894C174.828 9.67575 174.141 9.86416 173.21 9.86416C172.26 9.86416 171.558 9.66467 171.104 9.26569C170.653 8.86302 170.428 8.35137 170.428 7.73074H172.029C172.063 8.0115 172.135 8.21099 172.246 8.32921C172.441 8.53978 172.803 8.64506 173.332 8.64506C173.642 8.64506 173.888 8.59889 174.069 8.50653C174.253 8.41417 174.346 8.27564 174.346 8.09093C174.346 7.9136 174.272 7.77877 174.124 7.68641C173.976 7.59405 173.428 7.4352 172.478 7.20985C171.795 7.03992 171.313 6.8275 171.032 6.5726C170.751 6.32139 170.611 5.95936 170.611 5.48649C170.611 4.92867 170.829 4.45026 171.265 4.05129C171.704 3.64861 172.321 3.44728 173.116 3.44728C173.869 3.44728 174.484 3.59689 174.961 3.89613Z" fill="white"/>
<path opacity="0.5" d="M44.091 23.5134L31.2617 33.8755V14.6316L44.091 23.5134Z" fill="white"/>
<path opacity="0.7" d="M46.5575 23.5134L59.3867 33.8755V14.6316L46.5575 23.5134Z" fill="white"/>
<path d="M45.3262 3.03589L59.3874 12.9045L45.3262 22.7732L31.2617 12.9045L45.3262 3.03589Z" fill="white"/>
<path opacity="0.5" d="M14.4855 23.5134L1.65625 33.8755V14.6316L14.4855 23.5134Z" fill="white"/>
<path opacity="0.7" d="M16.952 23.5134L29.7812 33.8755V14.6316L16.952 23.5134Z" fill="white"/>
<path d="M15.7207 3.03589L29.7819 12.9045L15.7207 22.7732L1.65625 12.9045L15.7207 3.03589Z" fill="white"/>
<path d="M72.9438 32.3651H69.6895V15.651H74.7694L77.8084 28.7932L80.8246 15.651H85.8479V32.3651H82.5935V21.0598C82.5935 20.7348 82.5973 20.2812 82.6049 19.6991C82.6124 19.1095 82.6162 18.6559 82.6162 18.3384L79.4525 32.3651H76.0621L72.9211 18.3384C72.9211 18.6559 72.9249 19.1095 72.9325 19.6991C72.94 20.2812 72.9438 20.7348 72.9438 21.0598V32.3651Z" fill="white"/>
<path d="M92.2886 32.3651H89.0342V15.651H94.1142L97.1531 28.7932L100.169 15.651H105.193V32.3651H101.938V21.0598C101.938 20.7348 101.942 20.2812 101.95 19.6991C101.957 19.1095 101.961 18.6559 101.961 18.3384L98.7973 32.3651H95.4069L92.2659 18.3384C92.2659 18.6559 92.2697 19.1095 92.2772 19.6991C92.2848 20.2812 92.2886 20.7348 92.2886 21.0598V32.3651Z" fill="white"/>
<path d="M116.067 32.3651H108.492V15.651H116.611C118.66 15.6812 120.111 16.2747 120.966 17.4313C121.48 18.1419 121.737 18.9923 121.737 19.9826C121.737 21.0031 121.48 21.8233 120.966 22.4432C120.678 22.791 120.255 23.1085 119.696 23.3957C120.55 23.7057 121.192 24.197 121.623 24.8698C122.062 25.5426 122.281 26.359 122.281 27.3191C122.281 28.3094 122.031 29.1976 121.533 29.9838C121.215 30.5054 120.818 30.9439 120.342 31.2992C119.805 31.7074 119.17 31.9871 118.437 32.1383C117.711 32.2895 116.921 32.3651 116.067 32.3651ZM115.988 25.0059H111.826V29.4622H115.931C116.664 29.4622 117.235 29.3639 117.643 29.1674C118.384 28.8045 118.754 28.1091 118.754 27.081C118.754 26.2116 118.395 25.6144 117.677 25.2894C117.277 25.1079 116.713 25.0134 115.988 25.0059ZM117.723 21.8196C118.176 21.5474 118.403 21.0598 118.403 20.3568C118.403 19.5782 118.101 19.0641 117.496 18.8147C116.974 18.6408 116.309 18.5539 115.5 18.5539H111.826V22.2391H115.931C116.664 22.2391 117.261 22.0993 117.723 21.8196Z" fill="white"/>
<path d="M135.536 28.7365C135.453 29.4698 135.072 30.2144 134.391 30.9703C133.333 32.1723 131.851 32.7733 129.946 32.7733C128.374 32.7733 126.987 32.2668 125.785 31.2538C124.583 30.2408 123.982 28.5929 123.982 26.3099C123.982 24.1706 124.522 22.5301 125.603 21.3887C126.692 20.2472 128.102 19.6764 129.833 19.6764C130.861 19.6764 131.787 19.8692 132.611 20.2547C133.435 20.6403 134.115 21.2488 134.652 22.0804C135.136 22.8136 135.45 23.6641 135.593 24.6317C135.676 25.1987 135.71 26.0151 135.695 27.081H127.236C127.282 28.3207 127.671 29.1901 128.404 29.689C128.85 29.9989 129.387 30.1539 130.014 30.1539C130.68 30.1539 131.22 29.9649 131.636 29.5869C131.863 29.3828 132.063 29.0994 132.237 28.7365H135.536ZM132.339 24.9492C132.286 24.095 132.025 23.4486 131.556 23.0102C131.095 22.5642 130.521 22.3412 129.833 22.3412C129.084 22.3412 128.502 22.5755 128.087 23.0442C127.678 23.5129 127.421 24.1479 127.316 24.9492H132.339Z" fill="white"/>
<path d="M143.701 22.3979C142.605 22.3979 141.852 22.8628 141.444 23.7926C141.233 24.284 141.127 24.9114 141.127 25.6749V32.3651H137.906V20.028H141.025V21.8309C141.44 21.1959 141.834 20.7385 142.204 20.4588C142.869 19.9599 143.712 19.7105 144.733 19.7105C146.01 19.7105 147.053 20.0469 147.862 20.7196C148.679 21.3849 149.087 22.4924 149.087 24.042V32.3651H145.776V24.8471C145.776 24.197 145.689 23.6981 145.515 23.3504C145.198 22.7154 144.593 22.3979 143.701 22.3979Z" fill="white"/>
<path d="M162.773 24.4389H159.462C159.402 23.9778 159.247 23.562 158.997 23.1916C158.635 22.6927 158.071 22.4432 157.308 22.4432C156.219 22.4432 155.475 22.9837 155.074 24.0647C154.862 24.6392 154.757 25.4028 154.757 26.3553C154.757 27.2624 154.862 27.9919 155.074 28.5437C155.46 29.5718 156.185 30.0859 157.251 30.0859C158.007 30.0859 158.544 29.8818 158.861 29.4736C159.179 29.0653 159.372 28.5362 159.44 27.8861H162.739C162.664 28.8688 162.308 29.7986 161.673 30.6755C160.66 32.0891 159.16 32.796 157.172 32.796C155.184 32.796 153.721 32.2063 152.783 31.027C151.846 29.8477 151.377 28.3169 151.377 26.4346C151.377 24.3104 151.895 22.6587 152.931 21.4794C153.967 20.3001 155.395 19.7105 157.217 19.7105C158.767 19.7105 160.033 20.0582 161.016 20.7537C162.006 21.4491 162.592 22.6776 162.773 24.4389Z" fill="white"/>
<path d="M176.176 25.1079V32.3651H172.877V24.8471C172.877 24.1819 172.763 23.6452 172.536 23.237C172.242 22.6624 171.682 22.3752 170.858 22.3752C170.004 22.3752 169.354 22.6624 168.908 23.237C168.469 23.8039 168.25 24.6166 168.25 25.6749V32.3651H165.03V15.7077H168.25V21.6154C168.719 20.8973 169.259 20.3984 169.872 20.1187C170.492 19.8314 171.142 19.6878 171.822 19.6878C172.586 19.6878 173.277 19.8201 173.897 20.0846C174.525 20.3492 175.039 20.7537 175.439 21.2979C175.78 21.7591 175.987 22.2353 176.063 22.7267C176.139 23.2105 176.176 24.0043 176.176 25.1079Z" fill="white"/>
</svg>
