<svg xmlns="http://www.w3.org/2000/svg" width="25" height="25" viewBox="0 0 25 25" fill="none">
  <g clip-path="url(#clip0_55_632)">
    <path opacity="0.01" d="M0 0H25V25H0V0Z" fill="#202425"/>
    <path d="M23.3334 12.5C23.3334 18.4834 18.4834 23.3334 12.5 23.3334C6.51669 23.3334 1.66669 18.4834 1.66669 12.5C1.66669 6.51669 6.51669 1.66669 12.5 1.66669C18.4834 1.66669 23.3334 6.51669 23.3334 12.5Z" fill="#11AA66"/>
    <path d="M12.5 2.49998C6.97748 2.49998 2.49998 6.97748 2.49998 12.5C2.49998 18.0225 6.97748 22.5 12.5 22.5C18.0225 22.5 22.5 18.0225 22.5 12.5C22.5 6.97748 18.0225 2.49998 12.5 2.49998ZM0.833313 12.5C0.833313 6.05665 6.05665 0.833313 12.5 0.833313C18.9433 0.833313 24.1666 6.05665 24.1666 12.5C24.1666 18.9433 18.9433 24.1666 12.5 24.1666C6.05665 24.1666 0.833313 18.9433 0.833313 12.5Z" fill="#11AA66"/>
    <path d="M19.2167 8.28331C19.4508 8.51769 19.5823 8.83539 19.5823 9.16664C19.5823 9.4979 19.4508 9.8156 19.2167 10.05L11.7167 17.55C11.4823 17.7841 11.1646 17.9155 10.8334 17.9155C10.5021 17.9155 10.1844 17.7841 9.95003 17.55L5.78336 13.3833C5.56256 13.1464 5.44236 12.8329 5.44807 12.5091C5.45378 12.1853 5.58497 11.8763 5.81399 11.6473C6.04301 11.4183 6.35199 11.2871 6.67582 11.2814C6.99966 11.2756 7.31307 11.3958 7.55003 11.6166L10.8334 14.8983L17.45 8.28164C17.6844 8.04756 18.0021 7.91608 18.3334 7.91608C18.6646 7.91608 18.9823 8.04756 19.2167 8.28164V8.28331Z" fill="white"/>
  </g>
  <defs>
    <clipPath id="clip0_55_632">
      <rect width="25" height="25" fill="white"/>
    </clipPath>
  </defs>
</svg>